<?xml version="1.0" standalone="no"?>
<!DOCTYPE svg PUBLIC "-//W3C//DTD SVG 20010904//EN"
 "http://www.w3.org/TR/2001/REC-SVG-20010904/DTD/svg10.dtd">
<svg version="1.0" xmlns="http://www.w3.org/2000/svg"
 width="24pt" height="12pt" viewBox="0 0 310.000000 512.000000"
 preserveAspectRatio="xMidYMid meet">

<g transform="translate(0.000000,512.000000) scale(0.100000,-0.100000)"
 stroke="none">
<path d="M1948 4949 l-218 -152 0 -2054 c0 -1614 3 -2053 12 -2047 7 5 301
244 653 533 l640 526 -433 3 -432 2 -2 1670 -3 1670 -217 -151z"/>
<path d="M703 3962 l-633 -517 420 -3 420 -2 2 -1709 3 -1709 218 175 217 175
0 2054 c0 1130 -3 2054 -7 2053 -5 0 -293 -233 -640 -517z"/>
</g>
</svg>
