<svg xmlns="http://www.w3.org/2000/svg" viewBox="0 0 24 24" id="bootstrap"><path d="M21.583 24H2.417A2.42 2.42 0 0 1 0 21.583V2.417A2.42 2.42 0 0 1 2.417 0h19.166A2.42 2.42 0 0 1 24 2.417v19.167A2.42 2.42 0 0 1 21.583 24zM2.417 1C1.636 1 1 1.635 1 2.417v19.167C1 22.365 1.636 23 2.417 23h19.166c.781 0 1.417-.635 1.417-1.417V2.417C23 1.635 22.364 1 21.583 1H2.417z"></path><path d="M12.95 19.714H6.518a.5.5 0 0 1-.5-.5v-14a.5.5 0 0 1 .5-.5h6.803c1.37 0 2.488.324 3.323.963.886.675 1.335 1.687 1.335 3.007 0 .807-.204 1.512-.607 2.094-.205.297-.456.56-.75.787.5.255.908.61 1.22 1.062.496.717.747 1.615.747 2.671 0 .543-.095 1.072-.281 1.575 0 .059-.01.117-.032.17a3.612 3.612 0 0 1-1.071 1.435c-.482.39-1.079.696-1.773.909-.702.217-1.536.327-2.482.327zm-5.932-1h5.933c.845 0 1.58-.095 2.186-.282.572-.175 1.056-.421 1.439-.731a2.63 2.63 0 0 0 .714-.898.51.51 0 0 1 .036-.166c.175-.424.263-.874.263-1.338 0-.849-.191-1.556-.569-2.103-.356-.516-.908-.855-1.642-1.01a.5.5 0 0 1-.396-.489c0-.201.12-.428.306-.506.549-.232.974-.562 1.263-.979.285-.413.43-.926.43-1.526 0-1.005-.309-1.729-.942-2.212-.656-.503-1.57-.758-2.716-.758H7.018v12.998z"></path><path d="M13.319 17.715H8.985a.5.5 0 0 1-.5-.5v-4.368a.5.5 0 0 1 .5-.5h4.321c.834 0 1.507.212 2.001.63a.49.49 0 0 1 .074.055c.514.459.778 1.118.787 1.958 0 .851-.262 1.525-.778 2.009-.5.475-1.198.716-2.071.716zm-3.834-1h3.834c.608 0 1.075-.149 1.386-.443.312-.293.464-.71.464-1.276-.005-.521-.139-.907-.406-1.173a.366.366 0 0 1-.062-.048c-.314-.287-.771-.427-1.394-.427H9.485v3.367zm3.484-5.137h-4a.5.5 0 0 1-.5-.5V7.215a.5.5 0 0 1 .5-.5h4c.776 0 1.396.183 1.843.544.475.383.716 1.016.716 1.879 0 .779-.258 1.393-.767 1.825a.42.42 0 0 1-.049.037c-.468.378-1.069.578-1.743.578zm-3.5-1h3.5c.462 0 .846-.127 1.14-.377a.32.32 0 0 1 .038-.029c.256-.236.381-.574.381-1.034 0-.546-.116-.917-.345-1.101-.264-.214-.673-.322-1.214-.322h-3.5v2.863z"></path></svg>