<?xml version="1.0" standalone="no"?>
<!DOCTYPE svg PUBLIC "-//W3C//DTD SVG 20010904//EN"
 "http://www.w3.org/TR/2001/REC-SVG-20010904/DTD/svg10.dtd">
<svg version="1.0" xmlns="http://www.w3.org/2000/svg"
  viewBox="0 0 225.000000 225.000000"
 preserveAspectRatio="xMidYMid meet">

<g transform="translate(0.000000,225.000000) scale(0.100000,-0.100000)"
 stroke="none">
<path d="M1570 2243 c-86 -14 -96 -36 -88 -187 3 -50 3 -102 -1 -116 -7 -25
-26 -32 -126 -45 -16 -2 -46 -9 -65 -15 -444 -147 -556 -193 -748 -307 -197
-116 -345 -306 -359 -461 -3 -34 -3 -62 1 -62 4 0 38 27 74 61 59 53 265 199
281 199 11 0 51 -67 61 -101 6 -19 17 -74 26 -123 17 -99 38 -148 81 -187 67
-62 103 -75 257 -89 135 -13 182 -33 252 -106 l53 -55 -14 -57 c-9 -34 -15
-104 -15 -177 -1 -134 -9 -183 -47 -267 -16 -37 -23 -66 -19 -81 8 -35 62 -57
134 -57 72 0 96 17 85 58 -5 15 -8 83 -7 152 1 123 2 127 39 210 25 55 41 108
45 150 4 36 13 76 21 90 23 40 116 132 123 121 3 -5 9 -30 12 -55 6 -41 4 -49
-25 -81 -17 -20 -31 -40 -31 -45 0 -6 -7 -10 -15 -10 -27 0 -22 -89 11 -190
28 -87 30 -160 8 -236 -11 -40 -12 -58 -4 -74 6 -11 12 -21 13 -21 1 -1 88 -7
192 -13 189 -12 251 -9 266 15 13 22 0 34 -99 80 -53 26 -109 58 -124 72 -25
23 -28 33 -28 89 0 34 7 107 16 161 14 79 14 101 4 107 -10 6 -9 20 4 70 8 35
13 66 11 70 -3 4 5 30 17 56 18 41 21 67 21 154 -1 58 -6 124 -11 148 -9 39
-8 43 6 37 10 -4 31 -9 49 -12 28 -5 34 -1 62 37 17 24 31 47 31 51 0 5 14 29
32 53 41 60 51 144 20 185 -20 27 -33 98 -33 176 1 63 -24 117 -73 158 -25 20
-49 37 -55 37 -6 0 -26 9 -45 20 -27 14 -34 16 -29 5 3 -8 13 -15 23 -15 11 0
22 -4 25 -10 3 -5 15 -10 26 -10 10 0 19 -4 19 -10 0 -15 -38 -12 -68 6 -22
13 -20 11 6 -11 41 -34 62 -74 62 -119 0 -44 -9 -49 -53 -31 -69 29 -123 35
-194 25 -168 -26 -179 -26 -234 9 -29 17 -53 30 -54 29 -1 -2 -10 -27 -20 -56
-31 -96 -79 -131 -138 -101 -20 10 -19 8 4 -17 15 -16 45 -65 68 -109 51 -101
59 -111 99 -120 36 -8 92 -50 92 -70 0 -11 -73 -85 -85 -85 -17 0 -85 76 -85
94 0 18 -22 36 -102 84 -130 77 -178 126 -178 183 0 12 13 49 29 83 15 33 33
74 40 89 14 35 36 43 74 29 l30 -11 -22 22 c-26 29 -27 47 -1 80 29 36 99 61
158 55 l47 -6 -37 11 c-21 6 -38 14 -38 19 0 13 58 9 66 -4 5 -7 10 -4 15 10
10 26 50 29 89 7 37 -21 44 -18 26 10 -10 16 -14 34 -11 46 l7 21 22 -21 c27
-26 121 -30 152 -6 31 23 36 18 32 -34 -2 -30 1 -47 7 -45 10 5 20 302 10 340
-7 32 -92 57 -155 47z m94 -33 c42 -16 50 -47 38 -146 -16 -118 -27 -134 -97
-134 -68 0 -80 16 -94 115 -13 93 -3 146 29 162 30 15 89 17 124 3z m-529
-449 c-5 -22 -14 -33 -31 -37 -25 -7 -55 -53 -68 -107 -5 -20 -17 -33 -44 -44
-20 -8 -131 -62 -247 -120 -230 -115 -362 -196 -473 -292 -81 -69 -82 -68 -40
45 66 181 284 357 601 486 75 30 301 107 305 103 2 -2 1 -17 -3 -34z m813 -7
c37 -26 55 -71 48 -124 -4 -33 -2 -56 9 -76 21 -42 19 -72 -10 -98 l-24 -22
29 4 c38 5 65 -33 56 -80 -9 -48 -110 -222 -130 -226 -54 -11 -96 24 -96 78 0
41 18 60 57 60 38 0 46 15 29 48 -19 37 -21 92 -3 92 6 1 -3 7 -21 15 l-32 14
20 51 c11 28 20 60 20 70 0 11 10 30 21 41 27 27 21 75 -16 130 l-25 39 23 0
c12 0 33 -7 45 -16z m-508 -112 c33 -23 40 -24 115 -16 124 13 235 9 278 -9
46 -20 48 -42 11 -130 -15 -35 -28 -91 -31 -128 l-6 -67 -67 -6 c-78 -8 -141
4 -216 41 -48 23 -53 29 -60 66 -5 32 -3 43 10 52 14 11 12 13 -14 18 -17 4
-49 24 -71 45 l-41 38 16 47 c9 26 16 57 16 68 0 22 1 21 60 -19z m-72 -180
c50 -45 53 -51 59 -106 l6 -58 -34 7 c-18 4 -39 15 -46 24 -21 26 -63 118 -69
151 -10 45 20 39 84 -18z m-359 -24 c15 -37 60 -72 173 -133 82 -44 108 -63
113 -83 8 -34 54 -92 72 -92 20 0 7 -38 -26 -73 -46 -51 -184 -149 -256 -184
-62 -29 -78 -33 -155 -33 -68 0 -95 5 -136 24 -58 27 -109 84 -126 139 -13 44
-3 71 69 179 45 68 237 278 254 278 5 0 13 -10 18 -22z m869 -70 c2 -20 10
-42 18 -48 27 -23 16 -40 -26 -40 -37 0 -40 2 -40 28 0 61 12 103 29 100 10
-2 17 -16 19 -40z m-182 -92 l101 -1 24 -125 c32 -171 33 -320 2 -373 -15 -24
-23 -54 -23 -83 0 -25 -7 -60 -14 -79 l-15 -35 -78 0 c-97 0 -113 8 -90 44 10
14 28 28 41 32 22 5 23 8 14 52 -4 26 -15 66 -24 89 -9 23 -13 46 -9 53 8 12
46 222 41 227 -2 2 -15 -43 -30 -99 -33 -122 -67 -188 -118 -233 -21 -17 -38
-37 -38 -44 0 -7 -12 -28 -26 -47 -15 -19 -21 -34 -14 -34 19 0 3 -82 -36
-184 -22 -57 -34 -105 -34 -137 l0 -49 -42 0 c-70 0 -72 4 -64 122 11 177 25
234 73 307 40 59 42 66 33 100 -15 55 -12 146 9 249 19 90 21 94 70 138 54 48
60 64 36 84 -8 7 -15 25 -15 40 l0 28 63 -21 c44 -14 91 -20 163 -21z m104
-721 c0 -24 -28 -35 -102 -41 -102 -9 -148 0 -148 29 0 21 3 22 125 23 93 1
125 -2 125 -11z m-21 -87 c-8 -16 -23 -18 -108 -18 -76 0 -100 3 -104 14 -3 8
-4 16 -2 18 2 1 53 3 114 4 103 0 109 -1 100 -18z m-7 -140 l3 -101 75 -44
c92 -55 113 -74 104 -97 -6 -16 -16 -17 -98 -11 -175 14 -181 16 -184 53 -3
25 -8 32 -25 32 -39 0 -48 13 -37 49 9 31 0 135 -16 188 -6 21 -3 22 72 26 44
1 84 4 91 5 9 1 13 -27 15 -100z m-427 -101 c14 -11 17 -22 12 -45 -4 -17 0
-52 8 -78 20 -66 9 -77 -72 -72 -104 7 -132 53 -67 114 19 19 31 34 25 34 -16
0 -13 21 6 42 19 21 62 24 88 5z"/>
<path d="M1398 1833 c7 -3 16 -2 19 1 4 3 -2 6 -13 5 -11 0 -14 -3 -6 -6z"/>
<path d="M1483 1833 c9 -2 23 -2 30 0 6 3 -1 5 -18 5 -16 0 -22 -2 -12 -5z"/>
</g>
</svg>
