<?xml version="1.0" standalone="no"?>
<!DOCTYPE svg PUBLIC "-//W3C//DTD SVG 20010904//EN"
 "http://www.w3.org/TR/2001/REC-SVG-20010904/DTD/svg10.dtd">
<svg version="1.0" xmlns="http://www.w3.org/2000/svg"
 viewBox="0 0 400.000000 400.000000"
 preserveAspectRatio="xMidYMid meet">

<g transform="translate(0.000000,400.000000) scale(0.100000,-0.100000)"
 stroke="none">
<path d="M2095 2563 c-41 -10 -34 -21 32 -51 91 -41 127 -69 53 -41 -152 58
-321 94 -401 87 -75 -8 -89 -26 -89 -117 0 -64 6 -88 33 -151 80 -183 204
-307 387 -387 91 -40 82 -42 -23 -7 -229 76 -414 295 -443 523 l-7 54 -141 -6
c-197 -8 -374 -47 -576 -127 -113 -45 -316 -147 -402 -202 -29 -19 -66 -43
-83 -53 -51 -31 -254 -186 -303 -231 l-47 -43 41 9 c23 5 54 14 70 20 45 17
273 50 349 50 85 0 229 -22 316 -49 75 -24 202 -96 251 -143 18 -18 53 -55 76
-83 l42 -50 0 143 0 142 162 -2 162 -3 74 -138 c41 -76 76 -136 78 -134 2 2
37 64 77 138 l74 134 166 3 167 2 2 -271 3 -272 30 30 c17 16 48 48 69 71 80
87 208 122 441 122 164 0 171 3 139 65 -8 16 -13 39 -9 52 9 38 9 38 375 116
91 19 217 45 280 57 276 54 314 74 371 195 54 115 50 159 -17 179 -25 8 -38
-6 -59 -60 l-15 -39 5 40 c2 22 6 48 7 58 4 23 -102 70 -307 137 -335 109
-688 189 -990 225 -121 14 -375 19 -420 8z m-203 -159 c91 -33 193 -93 238
-140 l35 -35 -28 10 c-16 6 -37 16 -48 21 -25 14 -24 8 6 -41 l26 -40 -40 21
c-65 33 -78 26 -35 -20 56 -59 62 -72 28 -64 -30 8 -29 5 11 -51 39 -54 40
-59 6 -39 -51 30 -162 126 -202 175 -76 93 -111 173 -95 214 7 20 13 19 98
-11z m961 -98 c116 -19 327 -68 327 -76 0 -19 -62 -30 -173 -30 -148 0 -186
10 -233 58 -20 20 -52 42 -72 48 l-37 12 50 1 c28 0 90 -6 138 -13z m177 -455
c-140 -46 -225 -87 -252 -121 -16 -20 -19 -36 -16 -77 3 -29 3 -53 2 -53 -8 0
-33 59 -39 91 -6 33 -3 39 32 68 57 47 283 129 358 130 18 0 -18 -15 -85 -38z"/>
<path d="M1560 1283 l0 -213 150 0 150 0 0 213 0 212 -73 -112 c-39 -62 -75
-113 -78 -113 -5 0 -61 84 -127 190 l-22 35 0 -212z"/>
</g>
</svg>
