<svg xmlns="http://www.w3.org/2000/svg" viewBox="0 0 24 24" id="netlify"><path d="M12 24a.502.502 0 0 1-.354-.146l-11.5-11.5a.5.5 0 0 1 0-.707l11.5-11.5a.5.5 0 0 1 .707 0l11.5 11.5a.5.5 0 0 1 0 .707l-11.5 11.5A.498.498 0 0 1 12 24zM1.207 12 12 22.793 22.793 12 12 1.207 1.207 12z"></path><path d="M5 17a.5.5 0 0 1-.416-.777l9.189-13.81a.5.5 0 0 1 .832.554l-9.189 13.81A.498.498 0 0 1 5 17z"></path><path d="M23.5 12.5a.5.5 0 0 1-.192-.039L7.081 5.688a.5.5 0 0 1 .384-.923l16.227 6.773a.499.499 0 0 1 .269.653.498.498 0 0 1-.461.309z"></path><path d="M14.626 21.375a.5.5 0 0 1-.495-.574l2.31-15.44a.5.5 0 1 1 .988.148l-2.31 15.44a.5.5 0 0 1-.493.426z"></path><path d="M19.412 16.589a.479.479 0 0 1-.106-.012L.395 12.488a.499.499 0 0 1-.383-.594.496.496 0 0 1 .594-.383L19.517 15.6a.499.499 0 0 1-.105.989z"></path><path d="M3.525 15.57a.5.5 0 0 1-.212-.953l15.689-7.355a.501.501 0 0 1 .424.906L3.737 15.523a.481.481 0 0 1-.212.047z"></path><path d="M12.891 23.109a.499.499 0 0 1-.422-.232L3.542 8.804a.5.5 0 0 1 .843-.536l8.927 14.073a.499.499 0 0 1-.421.768z"></path></svg>