<?xml version="1.0" standalone="no"?>
<!DOCTYPE svg PUBLIC "-//W3C//DTD SVG 20010904//EN"
 "http://www.w3.org/TR/2001/REC-SVG-20010904/DTD/svg10.dtd">
<svg version="1.0" xmlns="http://www.w3.org/2000/svg"
 width="1200.000000pt" viewBox="0 0 1200.000000 1200.000000"
 preserveAspectRatio="xMidYMid meet">

<g transform="translate(0.000000,1200.000000) scale(0.100000,-0.100000)"
fill="#ffffff" stroke="none">
<path d="M1065 11994 c-287 -33 -527 -146 -720 -339 -166 -166 -279 -380 -326
-620 -21 -105 -21 -9965 0 -10070 85 -430 384 -772 789 -904 184 -60 -197 -56
5197 -56 4731 0 4964 1 5048 18 475 97 841 470 928 947 21 112 21 9948 0
10060 -85 467 -426 824 -901 943 l-85 21 -4950 2 c-2722 1 -4963 0 -4980 -2z
m8835 -5585 c173 -13 364 -40 514 -74 148 -33 366 -102 372 -118 2 -7 3 -256
2 -554 l-3 -542 -55 36 c-79 51 -300 156 -405 193 -49 17 -142 44 -205 60
-664 167 -1260 51 -1421 -276 -32 -65 -34 -74 -34 -179 0 -104 2 -114 32 -175
101 -206 333 -357 941 -616 207 -88 496 -233 620 -311 548 -344 786 -778 758
-1383 -17 -378 -117 -645 -336 -899 -199 -231 -545 -419 -930 -505 -725 -161
-1693 -86 -2247 174 l-83 39 0 585 c0 322 3 586 7 586 3 0 40 -26 82 -58 419
-322 935 -489 1446 -469 176 7 290 26 409 66 182 62 300 154 358 278 26 56 33
83 36 156 8 158 -40 271 -170 397 -140 137 -350 254 -807 450 -333 142 -495
222 -645 320 -395 257 -619 559 -701 945 -54 254 -39 562 40 815 125 396 471
730 939 905 249 92 586 154 926 169 109 4 404 -3 560 -15z m-2940 -584 l0
-485 -750 0 -750 0 0 -2145 0 -2145 -600 0 -600 0 0 2145 0 2145 -750 0 -750
0 0 485 0 485 2100 0 2100 0 0 -485z"/>
</g>
</svg>
